<?xml version="1.0" encoding="UTF-8"?>
<svg xmlns="http://www.w3.org/2000/svg" xmlns:xlink="http://www.w3.org/1999/xlink" width="155px" height="50px" viewBox="0 0 155 50" version="1.1">
<g id="surface1">
<path style=" stroke:none;fill-rule:nonzero;fill:rgb(100%,99.607843%,99.607843%);fill-opacity:1;" d="M 98.949219 50.148438 C 65.964844 50.148438 33.058594 50.148438 0.148438 50.148438 C 0.148438 33.484375 0.148438 16.816406 0.148438 0.148438 C 51.816406 0.148438 103.484375 0.148438 155.148438 0.148438 C 155.148438 16.816406 155.148438 33.484375 155.148438 50.148438 C 136.441406 50.148438 117.730469 50.148438 98.949219 50.148438 M 30.851562 3.457031 C 28.992188 1.824219 26.839844 1.277344 24.457031 1.863281 C 20.605469 2.8125 18.359375 6.765625 19.457031 10.566406 C 20.535156 14.300781 24.535156 16.390625 28.289062 15.175781 C 33.292969 13.554688 34.667969 7.488281 30.851562 3.457031 M 25.398438 47.429688 C 25.550781 47.429688 25.699219 47.433594 25.847656 47.433594 C 29.628906 47.414062 32.738281 44.710938 33.027344 41.191406 C 33.351562 37.277344 30.894531 34.214844 26.925781 33.585938 C 22.636719 32.910156 18.539062 37.070312 19.214844 41.367188 C 19.628906 43.988281 21.519531 46.824219 25.398438 47.429688 M 47.773438 12.886719 C 48.953125 11.277344 49.542969 9.523438 49.1875 7.496094 C 48.382812 2.929688 44.386719 1.132812 40.988281 1.738281 C 38.058594 2.261719 35.734375 4.898438 35.4375 7.828125 C 35.125 10.914062 36.753906 13.757812 39.488281 14.902344 C 42.53125 16.175781 45.644531 15.441406 47.773438 12.886719 M 13.285156 2.476562 C 11.84375 1.746094 10.335938 1.488281 8.730469 1.761719 C 5.210938 2.367188 2.726562 5.554688 3.019531 9.113281 C 3.320312 12.726562 6.304688 15.546875 9.84375 15.566406 C 12.910156 15.585938 15.796875 13.421875 16.585938 10.519531 C 17.4375 7.386719 16.148438 4.167969 13.285156 2.476562 M 6.910156 34.222656 C 5.527344 34.90625 4.425781 35.902344 3.742188 37.28125 C 2.464844 39.867188 2.730469 42.402344 4.410156 44.679688 C 6.125 47.007812 8.554688 47.785156 11.355469 47.210938 C 14.96875 46.46875 17.386719 42.941406 16.816406 39.476562 C 16.085938 35.027344 11.1875 32.148438 6.910156 34.222656 M 36.539062 28.4375 C 38.351562 30.871094 40.722656 32.019531 43.746094 31.40625 C 47.292969 30.6875 49.753906 27.28125 49.199219 23.585938 C 48.683594 20.160156 45.605469 17.503906 42.050781 17.683594 C 36.640625 17.957031 33.652344 23.824219 36.539062 28.4375 M 27.773438 17.882812 C 27.335938 17.8125 26.894531 17.707031 26.453125 17.679688 C 22.683594 17.441406 18.566406 20.726562 19.292969 25.601562 C 20.054688 30.734375 25.582031 33.269531 29.972656 30.367188 C 32.347656 28.796875 33.429688 26.410156 32.980469 23.589844 C 32.519531 20.691406 30.726562 18.785156 27.773438 17.882812 M 42.503906 33.511719 C 37.792969 33.609375 34.621094 37.492188 35.574219 41.988281 C 36.234375 45.101562 39.035156 47.402344 42.207031 47.433594 C 45.441406 47.464844 48.316406 45.242188 49.042969 42.144531 C 50.050781 37.867188 47.136719 33.9375 42.503906 33.511719 M 4.917969 19.824219 C 3.761719 21.039062 3.121094 22.492188 2.992188 24.164062 C 2.710938 27.871094 5.824219 31.511719 9.933594 31.511719 C 13.339844 31.507812 16.691406 28.863281 16.875 24.921875 C 17.007812 22.03125 15.273438 19.363281 12.628906 18.214844 C 10.066406 17.105469 7.082031 17.703125 4.917969 19.824219 M 88.527344 25.6875 C 88.515625 25.089844 88.535156 24.488281 88.484375 23.890625 C 88.347656 22.382812 87.523438 21.53125 86.035156 21.351562 C 84.542969 21.171875 83.351562 21.660156 82.527344 23.183594 C 82.03125 21.78125 81.039062 21.339844 79.800781 21.3125 C 78.589844 21.28125 77.621094 21.761719 76.972656 22.90625 C 76.925781 22.84375 76.878906 22.785156 76.832031 22.722656 C 76.832031 22.335938 76.832031 21.945312 76.832031 21.546875 C 76.042969 21.546875 75.304688 21.546875 74.570312 21.546875 C 74.570312 24.761719 74.570312 27.9375 74.570312 31.09375 C 75.378906 31.09375 76.140625 31.09375 76.945312 31.09375 C 76.945312 29.332031 76.921875 27.613281 76.960938 25.898438 C 76.972656 25.367188 77.074219 24.800781 77.277344 24.3125 C 77.578125 23.570312 78.460938 23.21875 79.285156 23.386719 C 79.992188 23.53125 80.269531 23.9375 80.300781 24.898438 C 80.3125 25.246094 80.308594 25.597656 80.308594 25.945312 C 80.308594 27.660156 80.308594 29.371094 80.308594 31.109375 C 81.144531 31.109375 81.90625 31.109375 82.742188 31.109375 C 82.742188 29.445312 82.710938 27.804688 82.757812 26.167969 C 82.773438 25.535156 82.882812 24.871094 83.109375 24.285156 C 83.394531 23.546875 84.308594 23.210938 85.128906 23.394531 C 85.8125 23.546875 86.09375 23.96875 86.105469 24.933594 C 86.117188 26.058594 86.109375 27.179688 86.109375 28.300781 C 86.109375 29.238281 86.109375 30.175781 86.109375 31.101562 C 86.96875 31.101562 87.726562 31.101562 88.527344 31.101562 C 88.527344 29.320312 88.527344 27.574219 88.527344 25.6875 M 151.988281 21.167969 C 152.019531 20.976562 152.054688 20.785156 152.09375 20.550781 C 151.464844 20.398438 150.878906 20.257812 150.320312 20.125 C 150.097656 20.730469 149.914062 21.226562 149.726562 21.726562 C 148.496094 21.214844 147.34375 21.195312 146.191406 21.550781 C 144.625 22.035156 143.820312 23.386719 144.019531 25.019531 C 144.148438 26.0625 144.761719 26.75 145.648438 27.347656 C 144.882812 27.695312 144.050781 27.933594 144.109375 28.800781 C 144.152344 29.445312 144.527344 30.066406 144.761719 30.714844 C 144.835938 30.691406 144.742188 30.730469 144.648438 30.753906 C 143.789062 31.003906 143.15625 31.484375 143.09375 32.441406 C 143.027344 33.40625 143.464844 34.148438 144.324219 34.566406 C 144.851562 34.824219 145.4375 35.03125 146.015625 35.097656 C 147.675781 35.292969 149.351562 35.398438 150.910156 34.59375 C 152.152344 33.953125 152.691406 32.785156 152.453125 31.332031 C 152.269531 30.210938 151.472656 29.519531 150.089844 29.3125 C 149.597656 29.238281 149.097656 29.226562 148.601562 29.195312 C 148.03125 29.164062 147.441406 29.214844 146.894531 29.082031 C 146.625 29.019531 146.433594 28.625 146.203125 28.382812 C 146.464844 28.203125 146.703125 27.925781 146.988281 27.867188 C 147.417969 27.78125 147.882812 27.871094 148.328125 27.835938 C 150.097656 27.710938 151.328125 26.621094 151.507812 25.03125 C 151.613281 24.117188 151.3125 23.328125 150.757812 22.734375 C 151.179688 22.210938 151.5625 21.738281 151.988281 21.167969 M 100.300781 24.789062 C 99.710938 22.160156 98.113281 20.910156 95.773438 21.433594 C 94.992188 21.605469 94.304688 22.195312 93.578125 22.597656 C 93.578125 22.332031 93.578125 21.949219 93.578125 21.535156 C 92.753906 21.535156 91.988281 21.535156 91.1875 21.535156 C 91.1875 26.03125 91.1875 30.5 91.1875 34.988281 C 91.988281 34.988281 92.761719 34.988281 93.5625 34.988281 C 93.5625 34.144531 93.5625 33.347656 93.5625 32.554688 C 93.5625 31.746094 93.5625 30.941406 93.5625 30.121094 C 93.699219 30.140625 93.761719 30.128906 93.789062 30.15625 C 96.054688 32.300781 99.375 31.417969 100.125 28.386719 C 100.394531 27.28125 100.261719 26.074219 100.300781 24.789062 M 58.140625 29.058594 C 55.902344 29.351562 54.523438 28.433594 54.195312 26.242188 C 54.039062 25.203125 54.0625 24.089844 54.246094 23.054688 C 54.640625 20.84375 56.613281 19.742188 58.6875 20.582031 C 59.382812 20.863281 59.914062 21.5625 60.632812 22.164062 C 61.101562 21.878906 61.726562 21.496094 62.347656 21.113281 C 62.316406 20.984375 62.308594 20.910156 62.277344 20.847656 C 61.417969 18.949219 59.789062 18.332031 57.867188 18.191406 C 54.882812 17.972656 52.542969 19.511719 51.773438 22.25 C 51.613281 22.820312 51.527344 23.421875 51.472656 24.015625 C 51.035156 28.703125 53.722656 31.605469 58.191406 31.285156 C 60.414062 31.125 62.128906 29.683594 62.46875 27.644531 C 61.835938 27.324219 61.191406 26.996094 60.496094 26.644531 C 60.136719 27.917969 59.519531 28.792969 58.140625 29.058594 M 132.695312 24.753906 C 132.636719 25.347656 132.519531 25.941406 132.539062 26.53125 C 132.644531 30.0625 135.253906 32.011719 138.679688 31.140625 C 140.914062 30.570312 142.175781 28.519531 141.960938 25.792969 C 141.761719 23.210938 140.292969 21.621094 137.867188 21.359375 C 135.277344 21.082031 133.441406 22.25 132.695312 24.753906 M 69.371094 21.4375 C 67.304688 21.105469 65.441406 21.445312 63.914062 23.058594 C 64.296875 23.609375 64.640625 24.105469 64.851562 24.40625 C 65.839844 23.996094 66.664062 23.539062 67.550781 23.320312 C 68.527344 23.078125 69.152344 23.441406 69.253906 24.050781 C 69.363281 24.714844 68.992188 25.046875 67.894531 25.300781 C 67.050781 25.496094 66.183594 25.636719 65.378906 25.941406 C 64.0625 26.441406 63.503906 27.546875 63.730469 28.933594 C 63.964844 30.351562 64.878906 31.183594 66.296875 31.296875 C 67.625 31.402344 68.730469 31.046875 69.433594 29.730469 C 69.589844 30.019531 69.671875 30.199219 69.777344 30.363281 C 70.246094 31.121094 71.523438 31.476562 72.527344 31.074219 C 73.351562 30.742188 72.628906 30.074219 72.777344 29.585938 C 72.808594 29.484375 72.742188 29.355469 72.71875 29.246094 C 71.664062 29.253906 71.621094 29.207031 71.617188 28.140625 C 71.617188 26.84375 71.632812 25.546875 71.609375 24.253906 C 71.578125 22.753906 70.933594 21.929688 69.371094 21.4375 M 111.050781 24.925781 C 111.050781 23.808594 111.050781 22.6875 111.050781 21.539062 C 110.242188 21.539062 109.476562 21.539062 108.644531 21.539062 C 108.644531 23.171875 108.667969 24.785156 108.632812 26.398438 C 108.621094 26.964844 108.542969 27.550781 108.363281 28.078125 C 108.042969 29.003906 107.160156 29.414062 106.121094 29.230469 C 105.300781 29.085938 104.972656 28.609375 104.953125 27.511719 C 104.941406 26.742188 104.949219 25.96875 104.949219 25.195312 C 104.949219 23.980469 104.949219 22.769531 104.949219 21.539062 C 104.109375 21.539062 103.34375 21.539062 102.554688 21.539062 C 102.554688 23.839844 102.496094 26.105469 102.574219 28.371094 C 102.640625 30.355469 103.78125 31.304688 105.769531 31.316406 C 107.027344 31.320312 107.917969 30.726562 108.679688 29.515625 C 108.714844 30.207031 108.734375 30.660156 108.753906 31.09375 C 109.554688 31.09375 110.285156 31.09375 111.050781 31.09375 C 111.050781 29.054688 111.050781 27.066406 111.050781 24.925781 M 115.523438 29.03125 C 115.113281 28.71875 114.703125 28.40625 114.234375 28.046875 C 113.789062 28.53125 113.34375 29.023438 112.8125 29.601562 C 113.234375 29.964844 113.578125 30.375 114.015625 30.609375 C 115.535156 31.429688 117.148438 31.558594 118.777344 30.996094 C 120.054688 30.558594 120.75 29.515625 120.746094 28.210938 C 120.738281 26.917969 120.078125 26.042969 118.699219 25.601562 C 117.941406 25.355469 117.15625 25.214844 116.390625 25.007812 C 115.902344 24.875 115.496094 24.636719 115.542969 24.039062 C 115.59375 23.429688 116.082031 23.308594 116.558594 23.242188 C 117.527344 23.109375 118.363281 23.425781 119.09375 24.160156 C 119.558594 23.65625 119.992188 23.1875 120.421875 22.71875 C 119.320312 21.371094 116.964844 20.902344 115.109375 21.632812 C 113.816406 22.144531 113.167969 23.171875 113.292969 24.566406 C 113.414062 25.90625 114.320312 26.550781 115.476562 26.921875 C 116.210938 27.15625 116.992188 27.257812 117.691406 27.554688 C 117.996094 27.6875 118.347656 28.1875 118.316406 28.480469 C 118.28125 28.785156 117.828125 29.242188 117.523438 29.273438 C 116.90625 29.335938 116.265625 29.152344 115.523438 29.03125 M 126.546875 29.03125 C 126.207031 29.03125 125.867188 29.03125 125.464844 29.03125 C 125.464844 25.445312 125.464844 21.941406 125.464844 18.425781 C 124.59375 18.425781 123.789062 18.425781 123 18.425781 C 123 22.679688 123 26.882812 123 31.078125 C 125.757812 31.078125 128.476562 31.078125 131.183594 31.078125 C 131.183594 30.378906 131.183594 29.738281 131.183594 29.03125 C 129.664062 29.03125 128.179688 29.03125 126.546875 29.03125 Z M 126.546875 29.03125 "/>
<path style=" stroke:none;fill-rule:nonzero;fill:rgb(32.941177%,45.09804%,100%);fill-opacity:1;" d="M 30.890625 3.492188 C 34.667969 7.488281 33.292969 13.554688 28.289062 15.175781 C 24.535156 16.390625 20.535156 14.300781 19.457031 10.566406 C 18.359375 6.765625 20.605469 2.8125 24.457031 1.863281 C 26.839844 1.277344 28.992188 1.824219 30.890625 3.492188 Z M 30.890625 3.492188 "/>
<path style=" stroke:none;fill-rule:nonzero;fill:rgb(100%,34.901962%,34.901962%);fill-opacity:1;" d="M 25.332031 47.421875 C 21.519531 46.824219 19.628906 43.988281 19.214844 41.367188 C 18.539062 37.070312 22.636719 32.910156 26.925781 33.585938 C 30.894531 34.214844 33.351562 37.277344 33.027344 41.191406 C 32.738281 44.710938 29.628906 47.414062 25.847656 47.433594 C 25.699219 47.433594 25.550781 47.429688 25.332031 47.421875 Z M 25.332031 47.421875 "/>
<path style=" stroke:none;fill-rule:nonzero;fill:rgb(32.941177%,45.09804%,100%);fill-opacity:1;" d="M 47.738281 12.925781 C 45.644531 15.441406 42.53125 16.175781 39.488281 14.902344 C 36.753906 13.757812 35.125 10.914062 35.4375 7.828125 C 35.734375 4.898438 38.058594 2.261719 40.988281 1.738281 C 44.386719 1.132812 48.382812 2.929688 49.1875 7.496094 C 49.542969 9.523438 48.953125 11.277344 47.738281 12.925781 Z M 47.738281 12.925781 "/>
<path style=" stroke:none;fill-rule:nonzero;fill:rgb(32.941177%,45.09804%,100%);fill-opacity:1;" d="M 13.332031 2.503906 C 16.148438 4.167969 17.4375 7.386719 16.585938 10.519531 C 15.796875 13.421875 12.910156 15.585938 9.84375 15.566406 C 6.304688 15.546875 3.320312 12.726562 3.019531 9.113281 C 2.726562 5.554688 5.210938 2.367188 8.730469 1.761719 C 10.335938 1.488281 11.84375 1.746094 13.332031 2.503906 Z M 13.332031 2.503906 "/>
<path style=" stroke:none;fill-rule:nonzero;fill:rgb(100%,34.901962%,34.901962%);fill-opacity:1;" d="M 6.957031 34.195312 C 11.1875 32.148438 16.085938 35.027344 16.816406 39.476562 C 17.386719 42.941406 14.96875 46.46875 11.355469 47.210938 C 8.554688 47.785156 6.125 47.007812 4.410156 44.679688 C 2.730469 42.402344 2.464844 39.867188 3.742188 37.28125 C 4.425781 35.902344 5.527344 34.90625 6.957031 34.195312 Z M 6.957031 34.195312 "/>
<path style=" stroke:none;fill-rule:nonzero;fill:rgb(100%,87.058824%,35.686275%);fill-opacity:1;" d="M 36.507812 28.394531 C 33.652344 23.824219 36.640625 17.957031 42.050781 17.683594 C 45.605469 17.503906 48.683594 20.160156 49.199219 23.585938 C 49.753906 27.28125 47.292969 30.6875 43.746094 31.40625 C 40.722656 32.019531 38.351562 30.871094 36.507812 28.394531 Z M 36.507812 28.394531 "/>
<path style=" stroke:none;fill-rule:nonzero;fill:rgb(100%,87.058824%,35.686275%);fill-opacity:1;" d="M 27.832031 17.902344 C 30.726562 18.785156 32.519531 20.691406 32.980469 23.589844 C 33.429688 26.410156 32.347656 28.796875 29.972656 30.367188 C 25.582031 33.269531 20.054688 30.734375 19.292969 25.601562 C 18.566406 20.726562 22.683594 17.441406 26.453125 17.679688 C 26.894531 17.707031 27.335938 17.8125 27.832031 17.902344 Z M 27.832031 17.902344 "/>
<path style=" stroke:none;fill-rule:nonzero;fill:rgb(100%,34.901962%,34.901962%);fill-opacity:1;" d="M 42.574219 33.515625 C 47.136719 33.9375 50.050781 37.867188 49.042969 42.144531 C 48.316406 45.242188 45.441406 47.464844 42.207031 47.433594 C 39.035156 47.402344 36.234375 45.101562 35.574219 41.988281 C 34.621094 37.492188 37.792969 33.609375 42.574219 33.515625 Z M 42.574219 33.515625 "/>
<path style=" stroke:none;fill-rule:nonzero;fill:rgb(100%,87.058824%,35.686275%);fill-opacity:1;" d="M 4.957031 19.785156 C 7.082031 17.703125 10.066406 17.105469 12.628906 18.214844 C 15.273438 19.363281 17.007812 22.03125 16.875 24.921875 C 16.691406 28.863281 13.339844 31.507812 9.933594 31.511719 C 5.824219 31.511719 2.710938 27.871094 2.992188 24.164062 C 3.121094 22.492188 3.761719 21.039062 4.957031 19.785156 Z M 4.957031 19.785156 "/>
<path style=" stroke:none;fill-rule:nonzero;fill:rgb(1.960784%,1.960784%,1.960784%);fill-opacity:1;" d="M 88.527344 25.757812 C 88.527344 27.574219 88.527344 29.320312 88.527344 31.101562 C 87.726562 31.101562 86.96875 31.101562 86.109375 31.101562 C 86.109375 30.175781 86.109375 29.238281 86.109375 28.300781 C 86.109375 27.179688 86.117188 26.058594 86.105469 24.933594 C 86.09375 23.96875 85.8125 23.546875 85.128906 23.394531 C 84.308594 23.210938 83.394531 23.546875 83.109375 24.285156 C 82.882812 24.871094 82.773438 25.535156 82.757812 26.167969 C 82.710938 27.804688 82.742188 29.445312 82.742188 31.109375 C 81.90625 31.109375 81.144531 31.109375 80.308594 31.109375 C 80.308594 29.371094 80.308594 27.660156 80.308594 25.945312 C 80.308594 25.597656 80.3125 25.246094 80.300781 24.898438 C 80.269531 23.9375 79.992188 23.53125 79.285156 23.386719 C 78.460938 23.21875 77.578125 23.570312 77.277344 24.3125 C 77.074219 24.800781 76.972656 25.367188 76.960938 25.898438 C 76.921875 27.613281 76.945312 29.332031 76.945312 31.09375 C 76.140625 31.09375 75.378906 31.09375 74.570312 31.09375 C 74.570312 27.9375 74.570312 24.761719 74.570312 21.546875 C 75.304688 21.546875 76.042969 21.546875 76.832031 21.546875 C 76.832031 21.945312 76.832031 22.335938 76.832031 22.722656 C 76.878906 22.785156 76.925781 22.84375 76.972656 22.90625 C 77.621094 21.761719 78.589844 21.28125 79.800781 21.3125 C 81.039062 21.339844 82.03125 21.78125 82.527344 23.183594 C 83.351562 21.660156 84.542969 21.171875 86.035156 21.351562 C 87.523438 21.53125 88.347656 22.382812 88.484375 23.890625 C 88.535156 24.488281 88.515625 25.089844 88.527344 25.757812 Z M 88.527344 25.757812 "/>
<path style=" stroke:none;fill-rule:nonzero;fill:rgb(1.960784%,1.960784%,1.960784%);fill-opacity:1;" d="M 151.964844 21.214844 C 151.5625 21.738281 151.179688 22.210938 150.757812 22.734375 C 151.3125 23.328125 151.613281 24.117188 151.507812 25.03125 C 151.328125 26.621094 150.097656 27.710938 148.328125 27.835938 C 147.882812 27.871094 147.417969 27.78125 146.988281 27.867188 C 146.703125 27.925781 146.464844 28.203125 146.203125 28.382812 C 146.433594 28.625 146.625 29.019531 146.894531 29.082031 C 147.441406 29.214844 148.03125 29.164062 148.601562 29.195312 C 149.097656 29.226562 149.597656 29.238281 150.089844 29.3125 C 151.472656 29.519531 152.269531 30.210938 152.453125 31.332031 C 152.691406 32.785156 152.152344 33.953125 150.910156 34.59375 C 149.351562 35.398438 147.675781 35.292969 146.015625 35.097656 C 145.4375 35.03125 144.851562 34.824219 144.324219 34.566406 C 143.464844 34.148438 143.027344 33.40625 143.09375 32.441406 C 143.15625 31.484375 143.789062 31.003906 144.648438 30.753906 C 144.742188 30.730469 144.835938 30.691406 144.761719 30.714844 C 144.527344 30.066406 144.152344 29.445312 144.109375 28.800781 C 144.050781 27.933594 144.882812 27.695312 145.648438 27.347656 C 144.761719 26.75 144.148438 26.0625 144.019531 25.019531 C 143.820312 23.386719 144.625 22.035156 146.191406 21.550781 C 147.34375 21.195312 148.496094 21.214844 149.726562 21.726562 C 149.914062 21.226562 150.097656 20.730469 150.320312 20.125 C 150.878906 20.257812 151.464844 20.398438 152.09375 20.550781 C 152.054688 20.785156 152.019531 20.976562 151.964844 21.214844 M 145.480469 32.59375 C 146.238281 33.601562 148.886719 33.839844 149.742188 32.925781 C 149.957031 32.695312 150.09375 32.226562 150.015625 31.933594 C 149.953125 31.6875 149.542969 31.398438 149.261719 31.367188 C 148.328125 31.261719 147.378906 31.21875 146.4375 31.242188 C 145.652344 31.257812 145.421875 31.609375 145.480469 32.59375 M 147.875 26.175781 C 148.925781 25.945312 149.308594 25.441406 149.222656 24.398438 C 149.15625 23.5625 148.710938 23.09375 147.929688 23.039062 C 146.988281 22.972656 146.410156 23.417969 146.316406 24.285156 C 146.1875 25.464844 146.605469 26.015625 147.875 26.175781 Z M 147.875 26.175781 "/>
<path style=" stroke:none;fill-rule:nonzero;fill:rgb(1.176471%,1.176471%,1.176471%);fill-opacity:1;" d="M 100.304688 24.851562 C 100.261719 26.074219 100.394531 27.28125 100.125 28.386719 C 99.375 31.417969 96.054688 32.300781 93.789062 30.15625 C 93.761719 30.128906 93.699219 30.140625 93.5625 30.121094 C 93.5625 30.941406 93.5625 31.746094 93.5625 32.554688 C 93.5625 33.347656 93.5625 34.144531 93.5625 34.988281 C 92.761719 34.988281 91.988281 34.988281 91.1875 34.988281 C 91.1875 30.5 91.1875 26.03125 91.1875 21.535156 C 91.988281 21.535156 92.753906 21.535156 93.578125 21.535156 C 93.578125 21.949219 93.578125 22.332031 93.578125 22.597656 C 94.304688 22.195312 94.992188 21.605469 95.773438 21.433594 C 98.113281 20.910156 99.710938 22.160156 100.304688 24.851562 M 95.609375 29.257812 C 97.007812 29.191406 97.664062 28.695312 97.835938 27.367188 C 97.9375 26.589844 97.902344 25.773438 97.761719 25.003906 C 97.5625 23.902344 96.835938 23.375 95.773438 23.363281 C 94.746094 23.351562 93.921875 23.898438 93.738281 24.957031 C 93.589844 25.816406 93.597656 26.734375 93.71875 27.601562 C 93.847656 28.546875 94.484375 29.132812 95.609375 29.257812 Z M 95.609375 29.257812 "/>
<path style=" stroke:none;fill-rule:nonzero;fill:rgb(1.960784%,1.960784%,1.960784%);fill-opacity:1;" d="M 58.203125 29.050781 C 59.519531 28.792969 60.136719 27.917969 60.496094 26.644531 C 61.191406 26.996094 61.835938 27.324219 62.46875 27.644531 C 62.128906 29.683594 60.414062 31.125 58.191406 31.285156 C 53.722656 31.605469 51.035156 28.703125 51.472656 24.015625 C 51.527344 23.421875 51.613281 22.820312 51.773438 22.25 C 52.542969 19.511719 54.882812 17.972656 57.867188 18.191406 C 59.789062 18.332031 61.417969 18.949219 62.277344 20.847656 C 62.308594 20.910156 62.316406 20.984375 62.347656 21.113281 C 61.726562 21.496094 61.101562 21.878906 60.632812 22.164062 C 59.914062 21.5625 59.382812 20.863281 58.6875 20.582031 C 56.613281 19.742188 54.640625 20.84375 54.246094 23.054688 C 54.0625 24.089844 54.039062 25.203125 54.195312 26.242188 C 54.523438 28.433594 55.902344 29.351562 58.203125 29.050781 Z M 58.203125 29.050781 "/>
<path style=" stroke:none;fill-rule:nonzero;fill:rgb(1.568628%,1.568628%,1.568628%);fill-opacity:1;" d="M 132.707031 24.691406 C 133.441406 22.25 135.277344 21.082031 137.867188 21.359375 C 140.292969 21.621094 141.761719 23.210938 141.960938 25.792969 C 142.175781 28.519531 140.914062 30.570312 138.679688 31.140625 C 135.253906 32.011719 132.644531 30.0625 132.539062 26.53125 C 132.519531 25.941406 132.636719 25.347656 132.707031 24.691406 M 139.203125 24.625 C 138.710938 23.660156 138.023438 23.273438 136.980469 23.371094 C 136.058594 23.460938 135.332031 23.964844 135.199219 24.90625 C 135.0625 25.84375 135.058594 26.839844 135.214844 27.773438 C 135.390625 28.792969 136.191406 29.269531 137.253906 29.261719 C 138.316406 29.253906 139.117188 28.769531 139.265625 27.75 C 139.410156 26.761719 139.273438 25.738281 139.203125 24.625 Z M 139.203125 24.625 "/>
<path style=" stroke:none;fill-rule:nonzero;fill:rgb(1.568628%,1.568628%,1.568628%);fill-opacity:1;" d="M 69.429688 21.457031 C 70.933594 21.929688 71.578125 22.753906 71.609375 24.253906 C 71.632812 25.546875 71.617188 26.84375 71.617188 28.140625 C 71.621094 29.207031 71.664062 29.253906 72.71875 29.246094 C 72.742188 29.355469 72.808594 29.484375 72.777344 29.585938 C 72.628906 30.074219 73.351562 30.742188 72.527344 31.074219 C 71.523438 31.476562 70.246094 31.121094 69.777344 30.363281 C 69.671875 30.199219 69.589844 30.019531 69.433594 29.730469 C 68.730469 31.046875 67.625 31.402344 66.296875 31.296875 C 64.878906 31.183594 63.964844 30.351562 63.730469 28.933594 C 63.503906 27.546875 64.0625 26.441406 65.378906 25.941406 C 66.183594 25.636719 67.050781 25.496094 67.894531 25.300781 C 68.992188 25.046875 69.363281 24.714844 69.253906 24.050781 C 69.152344 23.441406 68.527344 23.078125 67.550781 23.320312 C 66.664062 23.539062 65.839844 23.996094 64.851562 24.40625 C 64.640625 24.105469 64.296875 23.609375 63.914062 23.058594 C 65.441406 21.445312 67.304688 21.105469 69.429688 21.457031 M 69.152344 28.410156 C 69.230469 27.746094 69.308594 27.082031 69.390625 26.402344 C 68.449219 26.65625 67.65625 26.84375 66.886719 27.089844 C 66.25 27.296875 66.023438 27.816406 66.105469 28.449219 C 66.191406 29.105469 66.609375 29.445312 67.261719 29.496094 C 68.078125 29.558594 68.722656 29.289062 69.152344 28.410156 Z M 69.152344 28.410156 "/>
<path style=" stroke:none;fill-rule:nonzero;fill:rgb(1.176471%,1.176471%,1.176471%);fill-opacity:1;" d="M 111.050781 25 C 111.050781 27.066406 111.050781 29.054688 111.050781 31.09375 C 110.285156 31.09375 109.554688 31.09375 108.753906 31.09375 C 108.734375 30.660156 108.714844 30.207031 108.679688 29.515625 C 107.917969 30.726562 107.027344 31.320312 105.769531 31.316406 C 103.78125 31.304688 102.640625 30.355469 102.574219 28.371094 C 102.496094 26.105469 102.554688 23.839844 102.554688 21.539062 C 103.34375 21.539062 104.109375 21.539062 104.949219 21.539062 C 104.949219 22.769531 104.949219 23.980469 104.949219 25.195312 C 104.949219 25.96875 104.941406 26.742188 104.953125 27.511719 C 104.972656 28.609375 105.300781 29.085938 106.121094 29.230469 C 107.160156 29.414062 108.042969 29.003906 108.363281 28.078125 C 108.542969 27.550781 108.621094 26.964844 108.632812 26.398438 C 108.667969 24.785156 108.644531 23.171875 108.644531 21.539062 C 109.476562 21.539062 110.242188 21.539062 111.050781 21.539062 C 111.050781 22.6875 111.050781 23.808594 111.050781 25 Z M 111.050781 25 "/>
<path style=" stroke:none;fill-rule:nonzero;fill:rgb(1.568628%,1.568628%,1.568628%);fill-opacity:1;" d="M 115.578125 29.054688 C 116.265625 29.152344 116.90625 29.335938 117.523438 29.273438 C 117.828125 29.242188 118.28125 28.785156 118.316406 28.480469 C 118.347656 28.1875 117.996094 27.6875 117.691406 27.554688 C 116.992188 27.257812 116.210938 27.15625 115.476562 26.921875 C 114.320312 26.550781 113.414062 25.90625 113.292969 24.566406 C 113.167969 23.171875 113.816406 22.144531 115.109375 21.632812 C 116.964844 20.902344 119.320312 21.371094 120.421875 22.71875 C 119.992188 23.1875 119.558594 23.65625 119.09375 24.160156 C 118.363281 23.425781 117.527344 23.109375 116.558594 23.242188 C 116.082031 23.308594 115.59375 23.429688 115.542969 24.039062 C 115.496094 24.636719 115.902344 24.875 116.390625 25.007812 C 117.15625 25.214844 117.941406 25.355469 118.699219 25.601562 C 120.078125 26.042969 120.738281 26.917969 120.746094 28.210938 C 120.75 29.515625 120.054688 30.558594 118.777344 30.996094 C 117.148438 31.558594 115.535156 31.429688 114.015625 30.609375 C 113.578125 30.375 113.234375 29.964844 112.8125 29.601562 C 113.34375 29.023438 113.789062 28.53125 114.234375 28.046875 C 114.703125 28.40625 115.113281 28.71875 115.578125 29.054688 Z M 115.578125 29.054688 "/>
<path style=" stroke:none;fill-rule:nonzero;fill:rgb(0%,0%,0%);fill-opacity:1;" d="M 126.617188 29.03125 C 128.179688 29.03125 129.664062 29.03125 131.183594 29.03125 C 131.183594 29.738281 131.183594 30.378906 131.183594 31.078125 C 128.476562 31.078125 125.757812 31.078125 123 31.078125 C 123 26.882812 123 22.679688 123 18.425781 C 123.789062 18.425781 124.59375 18.425781 125.464844 18.425781 C 125.464844 21.941406 125.464844 25.445312 125.464844 29.03125 C 125.867188 29.03125 126.207031 29.03125 126.617188 29.03125 Z M 126.617188 29.03125 "/>
<path style=" stroke:none;fill-rule:nonzero;fill:rgb(97.647059%,97.647059%,97.647059%);fill-opacity:1;" d="M 145.460938 32.535156 C 145.421875 31.609375 145.652344 31.257812 146.4375 31.242188 C 147.378906 31.21875 148.328125 31.261719 149.261719 31.367188 C 149.542969 31.398438 149.953125 31.6875 150.015625 31.933594 C 150.09375 32.226562 149.957031 32.695312 149.742188 32.925781 C 148.886719 33.839844 146.238281 33.601562 145.460938 32.535156 Z M 145.460938 32.535156 "/>
<path style=" stroke:none;fill-rule:nonzero;fill:rgb(98.039216%,98.039216%,98.039216%);fill-opacity:1;" d="M 147.816406 26.179688 C 146.605469 26.015625 146.1875 25.464844 146.316406 24.285156 C 146.410156 23.417969 146.988281 22.972656 147.929688 23.039062 C 148.710938 23.09375 149.15625 23.5625 149.222656 24.398438 C 149.308594 25.441406 148.925781 25.945312 147.816406 26.179688 Z M 147.816406 26.179688 "/>
<path style=" stroke:none;fill-rule:nonzero;fill:rgb(98.823529%,98.823529%,98.823529%);fill-opacity:1;" d="M 95.542969 29.25 C 94.484375 29.132812 93.847656 28.546875 93.71875 27.601562 C 93.597656 26.734375 93.589844 25.816406 93.738281 24.957031 C 93.921875 23.898438 94.746094 23.351562 95.773438 23.363281 C 96.835938 23.375 97.5625 23.902344 97.761719 25.003906 C 97.902344 25.773438 97.9375 26.589844 97.835938 27.367188 C 97.664062 28.695312 97.007812 29.191406 95.542969 29.25 Z M 95.542969 29.25 "/>
<path style=" stroke:none;fill-rule:nonzero;fill:rgb(98.431373%,98.431373%,98.431373%);fill-opacity:1;" d="M 139.234375 24.675781 C 139.273438 25.738281 139.410156 26.761719 139.265625 27.75 C 139.117188 28.769531 138.316406 29.253906 137.253906 29.261719 C 136.191406 29.269531 135.390625 28.792969 135.214844 27.773438 C 135.058594 26.839844 135.0625 25.84375 135.199219 24.90625 C 135.332031 23.964844 136.058594 23.460938 136.980469 23.371094 C 138.023438 23.273438 138.710938 23.660156 139.234375 24.675781 Z M 139.234375 24.675781 "/>
<path style=" stroke:none;fill-rule:nonzero;fill:rgb(96.862745%,96.862745%,96.862745%);fill-opacity:1;" d="M 69.121094 28.460938 C 68.722656 29.289062 68.078125 29.558594 67.261719 29.496094 C 66.609375 29.445312 66.191406 29.105469 66.105469 28.449219 C 66.023438 27.816406 66.25 27.296875 66.886719 27.089844 C 67.65625 26.84375 68.449219 26.65625 69.390625 26.402344 C 69.308594 27.082031 69.230469 27.746094 69.121094 28.460938 Z M 69.121094 28.460938 "/>
</g>
</svg>
