<?xml version="1.0" encoding="UTF-8"?>
<svg xmlns="http://www.w3.org/2000/svg" xmlns:xlink="http://www.w3.org/1999/xlink" width="40px" height="40px" viewBox="0 0 40 40" version="1.1">
<g id="surface1">
<path style=" stroke:none;fill-rule:nonzero;fill:rgb(100%,100%,100%);fill-opacity:1;" d="M 21.601562 40.078125 C 14.398438 40.078125 7.238281 40.078125 0.078125 40.078125 C 0.078125 26.746094 0.078125 13.414062 0.078125 0.078125 C 13.414062 0.078125 26.746094 0.078125 40.078125 0.078125 C 40.078125 13.414062 40.078125 26.746094 40.078125 40.078125 C 33.933594 40.078125 27.785156 40.078125 21.601562 40.078125 M 24.257812 28.910156 C 23.609375 26.195312 20.582031 24.839844 18.066406 26.132812 C 16.378906 27 15.4375 29.046875 15.875 30.894531 C 16.324219 32.808594 18.035156 34.199219 19.949219 34.242188 C 22.746094 34.304688 24.894531 31.769531 24.257812 28.910156 M 17.167969 7.046875 C 16.28125 7.882812 15.808594 8.914062 15.777344 10.128906 C 15.714844 12.808594 18.039062 14.71875 20.449219 14.5 C 23.0625 14.261719 24.890625 11.765625 24.265625 9.234375 C 23.472656 6.042969 19.761719 4.871094 17.167969 7.046875 M 16.875 23.003906 C 17.984375 24.226562 19.378906 24.632812 20.964844 24.339844 C 23.136719 23.945312 24.671875 21.726562 24.339844 19.5 C 23.972656 17.054688 21.460938 15.328125 19.066406 15.953125 C 15.90625 16.773438 14.730469 20.476562 16.875 23.003906 M 11.867188 33.835938 C 13.765625 32.863281 14.699219 30.9375 14.238281 28.953125 C 13.824219 27.15625 12.15625 25.765625 10.34375 25.636719 C 7.777344 25.453125 5.277344 27.726562 5.8125 30.691406 C 6.316406 33.492188 9.167969 34.964844 11.867188 33.835938 M 34.183594 31.332031 C 35.164062 28.394531 32.925781 25.8125 30.4375 25.636719 C 27.851562 25.453125 25.328125 27.738281 25.894531 30.75 C 26.261719 32.691406 27.835938 34.0625 29.761719 34.230469 C 31.675781 34.398438 33.417969 33.277344 34.183594 31.332031 M 13.898438 8.304688 C 13.105469 6.820312 11.867188 5.996094 10.191406 5.929688 C 7.6875 5.832031 5.746094 7.777344 5.757812 10.300781 C 5.769531 12.960938 8.296875 14.996094 10.898438 14.433594 C 13.679688 13.832031 15.105469 10.96875 13.898438 8.304688 M 27.109375 7.148438 C 25.734375 8.457031 25.519531 10.488281 26.191406 12.011719 C 26.820312 13.421875 28.496094 14.675781 30.546875 14.496094 C 32.914062 14.292969 34.78125 11.96875 34.375 9.605469 C 34.09375 7.953125 33.179688 6.757812 31.59375 6.191406 C 29.953125 5.609375 28.449219 5.925781 27.109375 7.148438 M 8.828125 24.261719 C 9.488281 24.300781 10.171875 24.460938 10.808594 24.355469 C 13.105469 23.984375 14.644531 21.792969 14.304688 19.496094 C 14.058594 17.800781 12.703125 16.328125 11.035156 15.941406 C 9.3125 15.539062 7.460938 16.261719 6.484375 17.71875 C 4.863281 20.136719 5.972656 23.300781 8.828125 24.261719 M 25.925781 21.140625 C 26.375 23.03125 28.175781 24.5 30.320312 24.425781 C 32.496094 24.351562 34.804688 22.335938 34.363281 19.464844 C 33.992188 17.066406 31.695312 15.492188 29.371094 15.90625 C 27.15625 16.296875 25.378906 18.445312 25.925781 21.140625 Z M 25.925781 21.140625 "/>
<path style=" stroke:none;fill-rule:nonzero;fill:rgb(100%,34.509805%,34.509805%);fill-opacity:1;" d="M 24.269531 28.941406 C 24.894531 31.769531 22.746094 34.304688 19.949219 34.242188 C 18.035156 34.199219 16.324219 32.808594 15.875 30.894531 C 15.4375 29.046875 16.378906 27 18.066406 26.132812 C 20.582031 24.839844 23.609375 26.195312 24.269531 28.941406 Z M 24.269531 28.941406 "/>
<path style=" stroke:none;fill-rule:nonzero;fill:rgb(32.549021%,44.705883%,100%);fill-opacity:1;" d="M 17.191406 7.027344 C 19.761719 4.871094 23.472656 6.042969 24.265625 9.234375 C 24.890625 11.765625 23.0625 14.261719 20.449219 14.5 C 18.039062 14.71875 15.714844 12.808594 15.777344 10.128906 C 15.808594 8.914062 16.28125 7.882812 17.191406 7.027344 Z M 17.191406 7.027344 "/>
<path style=" stroke:none;fill-rule:nonzero;fill:rgb(100%,87.058824%,35.294119%);fill-opacity:1;" d="M 16.855469 22.980469 C 14.730469 20.476562 15.90625 16.773438 19.066406 15.953125 C 21.460938 15.328125 23.972656 17.054688 24.339844 19.5 C 24.671875 21.726562 23.136719 23.945312 20.964844 24.339844 C 19.378906 24.632812 17.984375 24.226562 16.855469 22.980469 Z M 16.855469 22.980469 "/>
<path style=" stroke:none;fill-rule:nonzero;fill:rgb(100%,34.509805%,34.509805%);fill-opacity:1;" d="M 11.839844 33.847656 C 9.167969 34.964844 6.316406 33.492188 5.8125 30.691406 C 5.277344 27.726562 7.777344 25.453125 10.34375 25.636719 C 12.15625 25.765625 13.824219 27.15625 14.238281 28.953125 C 14.699219 30.9375 13.765625 32.863281 11.839844 33.847656 Z M 11.839844 33.847656 "/>
<path style=" stroke:none;fill-rule:nonzero;fill:rgb(100%,34.509805%,34.509805%);fill-opacity:1;" d="M 34.175781 31.363281 C 33.417969 33.277344 31.675781 34.398438 29.761719 34.230469 C 27.835938 34.0625 26.261719 32.691406 25.894531 30.75 C 25.328125 27.738281 27.851562 25.453125 30.4375 25.636719 C 32.925781 25.8125 35.164062 28.394531 34.175781 31.363281 Z M 34.175781 31.363281 "/>
<path style=" stroke:none;fill-rule:nonzero;fill:rgb(32.549021%,44.705883%,100%);fill-opacity:1;" d="M 13.910156 8.335938 C 15.105469 10.96875 13.679688 13.832031 10.898438 14.433594 C 8.296875 14.996094 5.769531 12.960938 5.757812 10.300781 C 5.746094 7.777344 7.6875 5.832031 10.191406 5.929688 C 11.867188 5.996094 13.105469 6.820312 13.910156 8.335938 Z M 13.910156 8.335938 "/>
<path style=" stroke:none;fill-rule:nonzero;fill:rgb(32.549021%,44.705883%,100%);fill-opacity:1;" d="M 27.128906 7.128906 C 28.449219 5.925781 29.953125 5.609375 31.59375 6.191406 C 33.179688 6.757812 34.09375 7.953125 34.375 9.605469 C 34.78125 11.96875 32.914062 14.292969 30.546875 14.496094 C 28.496094 14.675781 26.820312 13.421875 26.191406 12.011719 C 25.519531 10.488281 25.734375 8.457031 27.128906 7.128906 Z M 27.128906 7.128906 "/>
<path style=" stroke:none;fill-rule:nonzero;fill:rgb(100%,87.058824%,35.294119%);fill-opacity:1;" d="M 8.796875 24.253906 C 5.972656 23.300781 4.863281 20.136719 6.484375 17.71875 C 7.460938 16.261719 9.3125 15.539062 11.035156 15.941406 C 12.703125 16.328125 14.058594 17.800781 14.304688 19.496094 C 14.644531 21.792969 13.105469 23.984375 10.808594 24.355469 C 10.171875 24.460938 9.488281 24.300781 8.796875 24.253906 Z M 8.796875 24.253906 "/>
<path style=" stroke:none;fill-rule:nonzero;fill:rgb(100%,87.058824%,35.294119%);fill-opacity:1;" d="M 25.917969 21.105469 C 25.378906 18.445312 27.15625 16.296875 29.371094 15.90625 C 31.695312 15.492188 33.992188 17.066406 34.363281 19.464844 C 34.804688 22.335938 32.496094 24.351562 30.320312 24.425781 C 28.175781 24.5 26.375 23.03125 25.917969 21.105469 Z M 25.917969 21.105469 "/>
</g>
</svg>
